PathFileType        4      (X/Y/Z)      C:\Users\pc\Desktop\IMUTRC\Sujet_01\Sujet_01_velo_60.trc         
DataRate	CameraRate	NumFrames	NumMarkers	Units	OrigDataRate	OrigDataStartFrame	OrigNumFrames
60.0	60.0	4	64	mm	60.0	514	1370
Frame#	Time	pHipOrigin			pRightASI			pLeftASI			pRightCSI			pLeftCSI			pRightIschialTub			pLeftIschialTub			pSacrum			pL5SpinalProcess			pL3SpinalProcess			pT12SpinalProcess			pIJ			pT4SpinalProcess			pT8SpinalProcess			pPX			pC7SpinalProcess			pTopOfHead			pRightAuricularis			pLeftAuricularis			pBackOfHead			pRightAcromion			pLeftAcromion			pRightArmLatEpicondyle			pRightArmMedEpicondyle			pLeftArmLatEpicondyle			pLeftArmMedEpicondyle			pRightUlnarStyloid			pRightRadialStyloid			pRightOlecranon			pLeftUlnarStyloid			pLeftRadialStyloid			pLeftOlecranon			pRightTopOfHand			pRightPinky			pRightBallHand			pLeftTopOfHand			pLeftPinky			pLeftBallHand			pRightGreaterTrochanter			pRightKneeLatEpicondyle			pRightKneeMedEpicondyle			pRightPatella			pLeftGreaterTrochanter			pLeftKneeLatEpicondyle			pLeftKneeMedEpicondyle			pLeftPatella			pRightTibialTub			pRightLatMalleolus			pRightMedMalleolus			pLeftTibialTub			pLeftLatMalleolus			pLeftMedMalleolus			pRightHeelFoot			pRightFirstMetatarsal			pRightFifthMetatarsal			pRightPivotFoot			pRightHeelCenter			pRightToe			pLeftHeelFoot			pLeftFirstMetatarsal			pLeftFifthMetatarsal			pLeftPivotFoot			pLeftHeelCenter			pLeftToe			
		X1	Y1	Z1	X2	Y2	Z2	X3	Y3	Z3	X4	Y4	Z4	X5	Y5	Z5	X6	Y6	Z6	X7	Y7	Z7	X8	Y8	Z8	X9	Y9	Z9	X10	Y10	Z10	X11	Y11	Z11	X12	Y12	Z12	X13	Y13	Z13	X14	Y14	Z14	X15	Y15	Z15	X16	Y16	Z16	X17	Y17	Z17	X18	Y18	Z18	X19	Y19	Z19	X20	Y20	Z20	X21	Y21	Z21	X22	Y22	Z22	X23	Y23	Z23	X24	Y24	Z24	X25	Y25	Z25	X26	Y26	Z26	X27	Y27	Z27	X28	Y28	Z28	X29	Y29	Z29	X30	Y30	Z30	X31	Y31	Z31	X32	Y32	Z32	X33	Y33	Z33	X34	Y34	Z34	X35	Y35	Z35	X36	Y36	Z36	X37	Y37	Z37	X38	Y38	Z38	X39	Y39	Z39	X40	Y40	Z40	X41	Y41	Z41	X42	Y42	Z42	X43	Y43	Z43	X44	Y44	Z44	X45	Y45	Z45	X46	Y46	Z46	X47	Y47	Z47	X48	Y48	Z48	X49	Y49	Z49	X50	Y50	Z50	X51	Y51	Z51	X52	Y52	Z52	X53	Y53	Z53	X54	Y54	Z54	X55	Y55	Z55	X56	Y56	Z56	X57	Y57	Z57	X58	Y58	Z58	X59	Y59	Z59	X60	Y60	Z60	X61	Y61	Z61	X62	Y62	Z62	X63	Y63	Z63	X64	Y64	Z64	
514	8.55	0.0	1249.99075	7.653985854756496E-14	38.15661999999998	1331.27001	139.9914200000001	104.09780000000002	1331.96148	-100.5147199999999	13.200809999999986	1398.02837	110.38390000000008	67.44984000000001	1398.59412	-87.3767699999999	-69.58711	1205.35945	33.94493000000006	-42.494029999999995	1205.67375	-64.93539999999993	-56.072	1277.96389	-15.275219999999928	-9.30343	1365.08922	-3.3944899999999176	43.12264	1457.43201	11.566420000000095	93.28571	1540.65996	25.898730000000107	314.49352	1583.46829	103.15488000000015	212.34442	1669.90215	62.67241000000013	151.99787	1616.21886	43.37408000000012	234.91151	1506.5893	77.94763000000012	242.20339	1695.04654	73.67308000000013	322.35115	1901.29345	77.25615000000016	316.12791	1814.79673	153.00364000000013	340.32939	1800.71586	24.201480000000153	277.40554	1803.41889	79.51915000000014	207.37839999999997	1657.01565	245.66074000000015	310.84759	1637.52874	-89.07401999999986	294.1894199999999	1439.13946	319.89957000000015	278.34845999999993	1412.23496	275.9597400000002	445.62154	1435.11636	-101.14332999999986	408.53356	1402.42864	-79.58200999999985	382.06908999999996	1276.0152	412.43094000000013	414.75679999999994	1277.20956	383.0120000000001	268.66785999999996	1429.14456	312.67055000000016	590.83043	1285.63293	-101.01760999999985	593.15628	1288.02165	-57.14063999999985	424.56311	1421.60125	-113.02405999999986	552.23378	1242.69887	458.57091000000014	472.14887999999996	1250.5565	466.05137000000013	419.4085099999999	1257.84837	423.8087800000001	741.57108	1223.65199	-32.68770999999983	687.69921	1247.47631	-88.00537999999985	621.94662	1264.63736	-88.25682999999985	-21.687040000000017	1235.78416	147.03185000000008	233.71714999999998	1017.02793	227.5567800000001	257.54147	1013.50771	164.82151000000007	267.22206	1045.88112	200.2751100000001	48.968710000000016	1230.75529	-139.67711999999992	322.47687	1025.51416	-88.0682399999999	319.01951	1029.03437	-21.0584299999999	341.14658	1058.95621	-52.928949999999894	266.84489	966.61341	205.24113000000008	12.446479999999982	689.83648	149.98632000000003	35.20214999999999	686.56771	94.41720000000004	369.18258	998.04391	-56.82632999999989	298.904	626.40975	-93.15997999999992	303.24141	624.58678	-33.19059999999993	-78.70196	609.06011	54.87764000000003	51.16883999999999	489.18421	114.40700000000002	-1.7601100000000227	498.17333	184.37128000000004	39.72813999999998	477.61779	161.30130000000003	-55.191950000000006	579.82975	76.37610000000002	83.85655999999997	433.48937	200.33797000000004	244.84355	493.20731	-37.71658999999994	417.77413	492.5787	32.12196000000008	429.96916	470.89166	-52.488929999999925	448.38743	480.44653	-5.091739999999915	287.14899	488.30416	-30.361859999999936	521.11759	479.25217	5.657490000000093	
515	8.567	0.0	1249.99075	7.653985854756496E-14	37.276569999999985	1331.71003	139.9285600000001	104.97785000000002	1331.39573	-100.0118299999999	12.635059999999985	1398.40554	109.88101000000009	68.32989000000002	1398.1541	-87.4396299999999	-69.90142	1205.61089	33.56777000000007	-42.053999999999995	1205.48517	-65.06111999999993	-55.94628	1278.02675	-15.84096999999993	-9.11484	1365.08922	-3.7716599999999176	43.1855	1457.43201	11.377840000000095	93.15998	1540.65996	26.024450000000108	313.99064	1583.84546	104.16066000000014	211.77867	1670.15359	63.615320000000125	151.6207	1616.34459	43.87697000000012	234.72293	1506.77788	78.45051000000011	241.44906	1695.36085	74.86744000000013	321.09393	1901.73347	79.26771000000015	315.18499	1814.98531	154.76375000000013	339.19789	1801.34447	25.835870000000153	276.39976	1803.79605	81.27926000000014	206.12117999999998	1656.7642	246.54080000000013	310.84759	1638.40879	-87.94251999999986	293.43508999999995	1438.95088	320.08815000000016	277.84556999999995	1412.10924	275.9597400000002	445.49582	1435.87069	-101.01760999999986	408.40784	1403.12011	-79.70772999999986	381.8176399999999	1275.82661	412.17950000000013	414.44248999999996	1277.08383	382.7605600000001	268.1021099999999	1428.95598	312.7962800000002	590.3904	1286.07296	-101.26904999999984	592.84198	1288.39881	-57.45493999999985	424.37453	1422.35558	-113.02405999999986	551.91948	1242.19599	458.1937400000001	471.83457999999996	1250.17933	465.6742000000001	419.0942099999999	1257.59693	423.5573400000001	741.06819	1223.65199	-33.00201999999983	687.19632	1247.60203	-88.31968999999984	621.50659	1264.95166	-88.50826999999985	-21.43560000000002	1237.60713	147.09471000000008	242.20338999999998	1030.04015	230.69983000000008	265.77626	1026.01705	167.9017000000001	274.51393	1059.45909	202.60096000000007	47.962930000000014	1229.4352	-139.86569999999992	311.22475	1010.3018	-92.2799299999999	308.64745	1013.50771	-25.207259999999902	331.90602	1042.48663	-57.14063999999989	274.26249	979.24847	207.8812900000001	16.092409999999983	706.11748	152.31217000000007	38.59664999999998	702.78585	96.61734000000004	358.9991	983.02013	-60.9751599999999	292.36646	610.38019	-93.85145999999992	297.01817	609.12297	-33.88206999999993	-75.43319	624.90108	57.76925000000003	54.751919999999984	505.40234	117.23574000000004	2.0744099999999768	514.58005	187.38861000000003	43.56265999999998	493.89878	164.25576000000004	-51.797450000000005	595.79645	79.33057000000004	87.81679999999997	449.95895	203.29244000000003	236.79734	478.12068	-38.84808999999994	409.53934	475.16621	31.30477000000008	421.67151	453.54203	-53.36897999999992	440.08978	462.71973	-5.8460699999999175	279.10279	472.71463	-31.430489999999935	512.81994	460.64532	5.091740000000091	
516	8.583	0.0	1249.99075	7.653985854756496E-14	36.396509999999985	1332.21292	139.8657000000001	105.85790000000001	1330.82998	-99.5718099999999	12.132169999999986	1398.78271	109.37812000000008	69.20995000000002	1397.65121	-87.5024999999999	-70.21572	1205.86233	33.25346000000006	-41.67683999999999	1205.29659	-65.18683999999993	-55.7577	1278.08961	-16.34385999999993	-8.92626	1365.08922	-4.211689999999917	43.31122	1457.43201	11.189260000000095	93.15998	1540.65996	26.150170000000106	313.61347	1584.0969	105.16643000000015	211.33864	1670.27931	64.55823000000012	151.36926	1616.40745	44.44272000000012	234.59721	1506.90361	78.89054000000012	240.88331	1695.48657	76.06180000000013	319.96243	1902.11064	81.09067000000016	314.55638	1815.11103	156.39814000000015	338.06639	1801.84736	27.407390000000152	275.45685	1804.0475	83.10223000000015	204.98967999999996	1656.4499	247.35799000000014	310.97331	1639.22599	-86.87388999999986	292.74361999999996	1438.63657	320.3396000000002	277.4683999999999	1411.98351	276.0226000000002	445.43296	1436.56216	-100.95474999999986	408.28212	1403.68586	-79.77058999999986	381.6919199999999	1275.57517	411.9280500000001	414.25390999999996	1276.95811	382.44625000000013	267.5992299999999	1428.70454	312.9848600000002	590.0761	1286.45012	-101.58335999999984	592.59053	1288.77598	-57.76924999999985	424.31167	1422.98419	-112.96119999999986	551.79375	1241.6931	457.7537200000001	471.7088499999999	1249.80217	465.3598900000001	418.9684899999999	1257.34548	423.2430300000001	740.62816	1223.65199	-33.31631999999983	686.81916	1247.72775	-88.57112999999984	621.19228	1265.20311	-88.82257999999986	-21.121290000000016	1239.55582	147.22043000000008	250.56389999999996	1043.93243	233.5914300000001	273.94819	1039.34358	170.73044000000007	281.61723	1073.91712	204.61252000000007	46.957160000000016	1228.24085	-140.11713999999992	299.34403	995.90663	-96.6801999999999	297.58392	998.73538	-29.544659999999904	321.97398	1026.77138	-61.54090999999989	281.93153	992.76358	210.3328700000001	21.24700999999998	721.95845	155.07806000000005	43.436939999999986	718.62682	99.25750000000004	348.06129	968.68783	-65.3754299999999	284.76028	595.2307	-95.10866999999993	289.72629	594.4135	-35.13928999999993	-70.27858000000002	639.98772	61.289460000000034	60.66084999999999	521.36904	120.81882000000004	8.234789999999977	530.67246	191.16026000000002	49.660179999999976	510.11692	167.96456000000003	-46.45427000000001	611.07167	82.91364000000004	94.29147999999998	466.55425	207.00123000000002	227.05389	464.10267	-40.98535999999994	399.54444	457.75372	29.60753000000008	411.48803	436.44384	-55.12908999999992	429.96916	444.99293	-7.54331999999992	269.17075	457.87944	-33.44204999999994	502.63646	441.59844	3.5830800000000886	
517	8.6	0.0	1249.99075	7.653985854756496E-14	35.51645999999999	1332.59009	139.8657000000001	106.67510000000001	1330.32709	-99.1317799999999	11.629279999999985	1399.15987	109.00095000000009	70.09000000000002	1397.27404	-87.5024999999999	-70.53003	1206.11378	32.876300000000064	-41.29966999999999	1205.17086	-65.31256999999992	-55.56911	1278.08961	-16.84673999999993	-8.73768	1365.02636	-4.525989999999918	43.43694	1457.43201	11.063530000000094	93.15998	1540.65996	26.338750000000108	313.36203	1584.15976	106.10935000000015	210.96148	1670.34218	65.50115000000012	151.18068	1616.40745	45.071330000000124	234.53435	1506.96647	79.33057000000011	240.44328	1695.54943	77.25615000000013	319.08238	1902.23636	82.97650000000016	314.11636	1815.11103	158.03252000000015	337.12348	1802.22453	28.91605000000015	274.76538	1804.11036	84.86233000000014	204.04676999999998	1656.00987	248.23804000000015	311.09903	1639.91746	-85.74238999999986	292.30358999999993	1438.32227	320.5281800000002	277.2798199999999	1411.79493	276.0226000000002	445.3701	1437.06505	-100.76615999999986	408.21926	1404.18875	-79.70772999999986	381.7547799999999	1275.32373	411.7394700000001	414.31676999999996	1276.76953	382.19481000000013	267.22205999999994	1428.39023	313.1734400000002	589.82465	1286.76443	-101.83479999999984	592.40195	1289.02742	-57.95782999999985	424.18595	1423.48708	-112.83546999999986	551.79375	1241.19021	457.3765500000001	471.77171999999996	1249.36214	465.0455900000001	419.0313499999999	1257.09404	422.9915900000001	740.37672	1223.77772	-33.56776999999983	686.56771	1247.85347	-88.82257999999985	620.94084	1265.45455	-89.07401999999986	-20.932710000000018	1241.44165	147.22043000000008	258.61009999999993	1058.20187	235.9172900000001	281.74295	1053.17299	173.05630000000008	288.28049	1088.68945	206.1211800000001	46.014240000000015	1227.29793	-140.30572999999993	287.52616	982.95727	-101.01760999999992	286.45752	985.34599	-33.819209999999906	311.85336	1012.43907	-65.8154499999999	289.53771	1006.84445	212.47014000000007	27.847419999999982	736.73078	158.28397000000007	49.785899999999984	733.39915	102.40055000000004	337.18634	955.61274	-69.7756999999999	276.52549	581.527	-97.12022999999994	281.99439	581.08697	-37.21369999999993	-63.36388000000001	653.56569	65.31257000000002	68.83277999999999	536.39281	125.09337000000004	16.532439999999976	545.63338	195.49767000000003	58.08354999999998	525.26642	172.30197000000004	-39.225260000000006	624.96394	86.93675000000005	103.21773999999998	482.33236	211.46436000000003	216.2418	451.6562	-44.191269999999946	388.29232	441.15841	26.841640000000076	400.04733	420.16284	-58.020689999999924	418.52846	428.02047	-10.309199999999922	258.17008	444.55291	-36.64795999999994	491.07004	422.99159	1.005780000000086	
